<?xml version="1.0" encoding="utf-8"?>
<!-- Generator: Adobe Illustrator 19.0.0, SVG Export Plug-In . SVG Version: 6.00 Build 0)  -->
<svg version="1.1" id="Layer_1" xmlns="http://www.w3.org/2000/svg" xmlns:xlink="http://www.w3.org/1999/xlink" x="0px" y="0px"
	 viewBox="0 0 427.5 92.8" style="enable-background:new 0 0 427.5 92.8;" xml:space="preserve">
<style type="text/css">
	.st0{fill:#6199D2;}
	.st1{fill:url(#XMLID_2_);}
	.st2{fill:url(#XMLID_5_);}
	.st3{fill:#5386C5;}
</style>
<path id="XMLID_38_" class="st0" d="M179.3,25.8h-12.4v48.2c0,0.5-0.4,0.8-0.8,0.8h-3.9c-0.5,0-0.8-0.4-0.8-0.8V25.8h-12.4
	c-0.4,0-0.7-0.3-0.7-0.7V21c0-0.4,0.3-0.7,0.7-0.7h30.4c0.4,0,0.7,0.3,0.7,0.7v4.1C180.1,25.5,179.7,25.8,179.3,25.8z"/>
<path id="XMLID_35_" class="st0" d="M183.1,61.5V34.9c0-9,4.9-14.6,14.5-14.6h21.3c0.3,0,0.5,0.2,0.5,0.5v4.6c0,0.3-0.2,0.5-0.5,0.5
	H198c-8.2,0-9.3,4.7-9.3,9.1v9.7h25.9c0.3,0,0.5,0.2,0.5,0.5v4.6c0,0.3-0.2,0.5-0.5,0.5h-25.9l0.1,10.1c0,4.4,1.1,9.1,9.3,9.1H219
	c0.3,0,0.5,0.2,0.5,0.5v4.6c0,0.3-0.2,0.5-0.5,0.5h-21.3C188.5,74.8,183.1,69.6,183.1,61.5z"/>
<path id="XMLID_33_" class="st0" d="M270.4,69.4h19.5c0.5,0,0.9,0.4,0.9,0.9V74c0,0.5-0.4,0.9-0.9,0.9h-25c-0.7,0-1.3-0.6-1.3-1.3
	V21.1c0-0.5,0.4-0.9,0.9-0.9h3.8c0.5,0,0.9,0.4,0.9,0.9v46.9C269.1,68.8,269.7,69.4,270.4,69.4z"/>
<path id="XMLID_30_" class="st0" d="M307.4,20.3h8.8c9.6,0,14.4,5.6,14.4,14.6v25.9c0,9.1-4.9,14.6-14.5,14.6h-8.7
	c-9.6,0-14.4-5.5-14.4-14.6V34.9C293,25.9,297.8,20.3,307.4,20.3z M307.8,69.8h8c8.2-0.3,9.3-4.7,9.3-9.1V34.9c0-4.3-1.1-9-9.3-9.1
	c-6.4-0.1-6.2,0-8,0c-8.2,0-9.3,4.7-9.3,9.1v25.9C298.5,65.1,299.6,69.8,307.8,69.8z"/>
<path id="XMLID_28_" class="st0" d="M394.8,45.7l18.2,28c0.3,0.5,0,1.2-0.7,1.2h-5.2c-0.3,0-0.5-0.1-0.7-0.4l-15.8-24.3
	c-0.2-0.3-0.6-0.3-0.8,0l-6.4,9.3c-0.4,0.5-0.6,1.1-0.6,1.8v12.8c0,0.4-0.4,0.8-0.8,0.8h-4c-0.4,0-0.8-0.4-0.8-0.8V20.8
	c0-0.3,0.3-0.6,0.6-0.6h4.3c0.3,0,0.6,0.3,0.6,0.6v27.5c0,0.6,0.7,0.8,1,0.3l19.4-28.2c0.1-0.2,0.3-0.3,0.5-0.3h5.4
	c0.5,0,0.8,0.6,0.5,1l-15,21.9C394.3,43.8,394.3,44.9,394.8,45.7z"/>
<path id="XMLID_27_" class="st0" d="M130.6,20.3h-18.4c-0.2,0-0.5,0.1-0.7,0.3l-3.7,3.7c-0.2,0.2-0.3,0.4-0.3,0.7V74
	c0,0.4,0.4,0.8,0.8,0.8h3.9c0.4,0,0.8-0.4,0.8-0.8V26.4c0-0.3,0.2-0.6,0.6-0.6h16.9c4.4,0,9.1,1.1,9.1,9.3V74c0,0.4,0.4,0.8,0.8,0.8
	h3.9c0.4,0,0.8-0.4,0.8-0.8V34.8C145.2,25.2,139.6,20.3,130.6,20.3z"/>
<path id="XMLID_24_" class="st0" d="M260.8,73.8L249.5,51c-0.1-0.3,0-0.7,0.4-0.7c3.9-0.5,7.8-5.1,7.8-13.7v-2.2
	c0-9.1-4.9-14.1-13.1-14.1h-17c-0.2,0-0.4,0.1-0.5,0.2l-4,4c-0.1,0.1-0.2,0.3-0.2,0.5v49.2c0,0.6,0.5,1,1,1h3.5c0.6,0,1-0.5,1-1
	V50.3h14.4c0.2,0,0.4,0.1,0.4,0.3l11.9,24.1c0.2,0.4,0.5,0.6,0.9,0.6h3.9C260.7,75.2,261.2,74.4,260.8,73.8z M228.3,44.7V27.1
	c0-0.7,0.6-1.3,1.3-1.3h14.6c6.7,0,7.8,4.2,7.8,8.5v1.8c0,4.4-1.1,8.5-7.8,8.5H228.3z"/>
<path id="XMLID_3_" class="st0" d="M372.5,37.7V35c0-12.4-8.9-14.7-16.6-14.7h-3.7c-7.4,0-17.3,1.9-17.3,14.7v25.6
	c0,12.8,9.8,14.7,17.3,14.7h3.7c11.1,0,16.6-5.1,16.7-14.5c0-0.1,0-0.2-0.1-0.3l-3.1-3.1c-0.1-0.1-0.2-0.1-0.3-0.1h-1.6
	c-0.2,0-0.4,0.2-0.4,0.4v2.9c0,8.3-5.7,9.2-12.1,9.2h-0.9c-7.3,0-13.6-0.2-13.6-9.2V35c0-9.1,6.3-9.2,13.6-9.2h1
	c6.2,0,11.8,0.9,12,8.8l3.7,3.7h1.3C372.2,38.3,372.5,38,372.5,37.7z"/>
<circle id="XMLID_4_" class="st0" cx="99.8" cy="23.2" r="2.9"/>
<path id="XMLID_79_" class="st0" d="M99.8,29.1c-1,0-1.9-0.2-2.8-0.6v3.7c1.8,4.7,2.8,9.9,2.8,15.2c0,0.8,0,1.5-0.1,2.3
	c0,0.3,0,0.6-0.1,0.9c0,0.4-0.1,0.9-0.1,1.3c0,0.4-0.1,0.8-0.1,1.2c0,0.3-0.1,0.7-0.1,1c-0.1,0.4-0.2,0.9-0.2,1.3
	c-0.1,0.3-0.1,0.6-0.2,0.9c-0.1,0.5-0.2,0.9-0.3,1.4c-0.1,0.2-0.1,0.5-0.2,0.7c-0.1,0.5-0.3,0.9-0.4,1.4c-0.1,0.2-0.1,0.4-0.2,0.7
	c-0.1,0.5-0.3,0.9-0.5,1.4c-0.1,0.2-0.1,0.4-0.2,0.6c0,0.1-0.1,0.2-0.1,0.2v11.1c0,0.6,0.5,1.1,1.1,1.1h3.3c0.6,0,1.1-0.5,1.1-1.1
	V28.5C101.7,28.9,100.8,29.1,99.8,29.1z"/>
<linearGradient id="XMLID_2_" gradientUnits="userSpaceOnUse" x1="22.3895" y1="40.6623" x2="96.9136" y2="40.6623">
	<stop  offset="0" style="stop-color:#172638"/>
	<stop  offset="1" style="stop-color:#304D71"/>
</linearGradient>
<path id="XMLID_77_" class="st1" d="M87.1,18.3c-0.2-0.3-0.6-0.3-0.9,0C76.5,27.9,64,40.5,64,40.5l5.9,5.9c0.2,0.2,0.2,0.6,0,0.9
	L68.2,49c-0.2,0.2-0.6,0.2-0.9,0l-5.2-5.2l-1.8,1.8l2.6,2.6c0.2,0.2,0.2,0.6,0,0.9l-1.4,1.4c-0.2,0.2-0.6,0.2-0.9,0L58,47.9
	c-0.2-0.2-0.6-0.2-0.9,0l-2.9,2.9c-0.2,0.2-0.6,0.2-0.9,0l-0.5-0.5l-0.9,0c-0.1,0-0.1,0-0.2-0.1l-2-2c0,0-0.1-0.1-0.1-0.2l0-0.9
	l-0.4-0.4c-0.2-0.2-0.2-0.6,0-0.9l31.8-31.8c0.1-0.1-12,2.7-24-0.2C46.1,11,40.9,4.3,40.9,4.3c-7.1,2.2-13.5,6.1-18.5,11.3
	C27.9,46.9,52.5,71.5,83.7,77c8.1-7.9,13.2-18.9,13.2-31.1C96.9,35.4,93.2,25.8,87.1,18.3z"/>
<linearGradient id="XMLID_5_" gradientUnits="userSpaceOnUse" x1="11.0225" y1="51.5578" x2="84.9069" y2="51.5578">
	<stop  offset="0" style="stop-color:#172638"/>
	<stop  offset="1" style="stop-color:#304D71"/>
</linearGradient>
<path id="XMLID_76_" class="st2" d="M64.4,72.2c-1.7,1.7-4.2,2.8-6.8,2.8c-5.3,0-9.6-4.3-9.6-9.6c0-1.3,0.3-2.6,0.7-3.7
	c-4.3-3.6-8.3-7.7-11.8-12c-1.1,0.5-2.4,0.7-3.7,0.7c-5.3,0-9.6-4.3-9.6-9.6c0-2.8,1.2-5.3,3.1-7.1c-3-6.1-5.2-12.6-6.4-19.1
	c-7.8,8.1-9.6,20.4-9.2,32.7c0.1,2.7,0.5,5.2,1,7.8c0.2,0.9,1.1,1.6,2,1.6H20c0.5,0,1.2,0.3,2,1.2l20.7,20.7
	c0.3,0.4,0.6,0.6,0.6,1.5v5.5c0,1,0.2,1.8,1.1,2c2.4,0.5,4.8,0.8,7.3,0.9c12.3,0.5,25.1-1.3,33.2-9.2C77.9,78,70.9,75.6,64.4,72.2z"
	/>
<g id="XMLID_69_">
	<path id="XMLID_75_" class="st3" d="M54.2,48.9l31.7-31.7c0.1-0.1,0.1-0.2,0-0.2l-0.4-0.4c-0.1-0.1-0.2-0.1-0.3,0L54.2,47.6
		c-0.4,0.4-1.1,0.4-1.5,0l-1.9-1.9c0,0-0.1,0-0.1,0.1l0,1.4c0,0.1,0,0.2,0.1,0.3l1.5,1.5c0.1,0.1,0.2,0.1,0.3,0.1l1.4,0
		C54,49,54.1,48.9,54.2,48.9z"/>
	<g id="XMLID_70_">
		<path id="XMLID_74_" class="st3" d="M48.4,49.2l0.4,0.4l0,0.9c0,0.1,0,0.1,0.1,0.2l2,2c0,0,0.1,0.1,0.2,0.1l0.9,0l0.5,0.5
			c0.2,0.2,0.6,0.2,0.9,0l2.9-2.9c0.2-0.2,0.6-0.2,0.9,0l2.6,2.6c0.2,0.2,0.6,0.2,0.9,0l1.4-1.4c0.2-0.2,0.2-0.6,0-0.9l-0.3-0.3
			l-0.1,0.1c-0.2,0.2-0.6,0.2-0.9,0L58,47.9c-0.2-0.2-0.6-0.2-0.9,0l-2.9,2.9c-0.2,0.2-0.6,0.2-0.9,0l-0.5-0.5l-0.9,0
			c-0.1,0-0.1,0-0.2-0.1l-2-2c0,0-0.1-0.1-0.1-0.2l0-0.9L49.6,47l-1.3,1.3C48.1,48.5,48.1,48.9,48.4,49.2z"/>
		<path id="XMLID_73_" class="st3" d="M40,6.8c0,0,5.2,6.7,16.3,9.4c9.2,2.2,18.4,1.1,22.2,0.5l2.8-2.8c0.1-0.1-12,2.7-24-0.2
			C46.1,11,40.9,4.3,40.9,4.3c-7.1,2.2-13.5,6.1-18.5,11.3c0.1,0.4,0.2,0.9,0.2,1.3C27.5,12.3,33.4,8.8,40,6.8z"/>
		<path id="XMLID_72_" class="st3" d="M64.8,41.2c3.8-3.8,12.9-13,20.4-20.5c0.3-0.3,0.7-0.2,0.9,0c6.2,7.5,9.9,17.1,9.9,27.5
			c0,5.1-0.9,9.9-2.5,14.4c2.2-5.2,3.4-10.9,3.4-16.9c0-10.5-3.7-20-9.9-27.5c-0.2-0.3-0.6-0.3-0.9,0C76.5,27.9,64,40.5,64,40.5
			L64.8,41.2z"/>
		<path id="XMLID_71_" class="st3" d="M67.3,49l-5.2-5.2l-1.8,1.8l0.8,0.8l0.6-0.6l5.2,5.2c0.5,0.5,0.8,0.1,1-0.1l1.2-1.2
			c0.2-0.2,0.2-0.6,0-0.9l-0.3-0.3L68.2,49C67.9,49.3,67.5,49.3,67.3,49z"/>
	</g>
</g>
</svg>
