<?xml version="1.0" encoding="utf-8"?>
<!-- Generator: Adobe Illustrator 19.0.0, SVG Export Plug-In . SVG Version: 6.00 Build 0)  -->
<svg version="1.1" id="Layer_1" xmlns="http://www.w3.org/2000/svg" xmlns:xlink="http://www.w3.org/1999/xlink" x="0px" y="0px"
	 viewBox="0 0 585.3 364" style="enable-background:new 0 0 585.3 364;" xml:space="preserve">
<style type="text/css">
	.st0{fill:#F4F4F4;}
	.st1{fill:#80A1C4;}
	.st2{fill:#91AAC0;}
</style>
<g id="XMLID_3_">
	<path id="XMLID_6_" class="st0" d="M307.9,205.6c-4.2,4.2-10,6.8-16.4,6.8c-12.8,0-23.2-10.4-23.2-23.2c0-3.2,0.6-6.2,1.8-9
		c-10.4-8.7-20-18.5-28.5-29c-2.8,1.2-5.8,1.8-9,1.8c-12.8,0-23.2-10.4-23.2-23.2c0-6.7,2.9-12.7,7.4-17
		c-7.3-14.7-12.5-30.2-15.3-45.9c-18.9,19.5-23.2,49.2-22,78.7c0.2,6.4,1.1,12.6,2.5,18.7c0.5,2.3,2.5,3.9,4.9,3.9h14
		c1.3,0,2.9,0.8,4.9,2.9l49.9,49.9c0.8,0.9,1.5,1.4,1.5,3.5v13.1c0,2.3,0.5,4.4,2.8,4.9c5.7,1.2,11.5,2,17.5,2.2
		c29.5,1.1,60.4-3.1,79.9-22C340.3,219.7,323.6,213.8,307.9,205.6z"/>
	<path id="XMLID_37_" class="st1" d="M380.9,59.1c-0.6-0.8-1.8-0.8-2.5-0.1c-26.3,26.3-60.5,60.7-60.5,60.7l16.2,16.2
		c0.7,0.7,0.7,1.7,0,2.4l-4.8,4.8c-0.7,0.7-1.7,0.7-2.4,0l-14.3-14.3l-4.9,4.9l7,7c0.7,0.7,0.7,1.7,0,2.4l-3.8,3.8
		c-0.7,0.7-1.7,0.7-2.4,0l-7-7c-0.7-0.7-1.7-0.7-2.4,0l-7.8,7.8c-0.7,0.7-1.7,0.7-2.4,0l-1.2-1.2l-2.5,0c-0.2,0-0.3-0.1-0.5-0.2
		l-5.5-5.5c-0.1-0.1-0.2-0.3-0.2-0.5l0-2.5l-1.2-1.2c-0.7-0.7-0.7-1.7,0-2.4L364.8,47c0.3-0.3-32.8,7.3-65.7-0.7
		c-30.4-7.4-44.5-25.6-44.5-25.6c-19.5,5.9-36.9,16.7-50.7,31c15,85.4,82.4,152.8,167.8,167.8c22.2-21.6,36.1-51.8,36.1-85.2
		C407.9,105.8,397.8,79.6,380.9,59.1z"/>
	<path id="XMLID_39_" class="st1" d="M291,142.6L377.6,56c0.2-0.2,0.2-0.5,0-0.7l-1-1.1c-0.2-0.2-0.5-0.2-0.7,0l-85,85
		c-1.1,1.1-2.9,1.1-4,0l-5.2-5.2c-0.1-0.1-0.3,0-0.3,0.1l0,3.7c0,0.3,0.1,0.5,0.3,0.7l4,4c0.2,0.2,0.5,0.3,0.8,0.3l3.7,0
		C290.5,142.9,290.8,142.8,291,142.6z"/>
</g>
<g id="XMLID_41_">
	<path id="XMLID_38_" class="st2" d="M221.2,279.1h-12.4v48.2c0,0.5-0.4,0.8-0.8,0.8H204c-0.5,0-0.8-0.4-0.8-0.8v-48.2h-12.4
		c-0.4,0-0.7-0.3-0.7-0.7v-4.1c0-0.4,0.3-0.7,0.7-0.7h30.4c0.4,0,0.7,0.3,0.7,0.7v4.1C221.9,278.7,221.6,279.1,221.2,279.1z"/>
	<path id="XMLID_35_" class="st2" d="M224.9,314.8v-26.7c0-9,4.9-14.6,14.5-14.6h21.3c0.3,0,0.5,0.2,0.5,0.5v4.6
		c0,0.3-0.2,0.5-0.5,0.5h-20.9c-8.2,0-9.3,4.7-9.3,9.1v9.7h25.9c0.3,0,0.5,0.2,0.5,0.5v4.6c0,0.3-0.2,0.5-0.5,0.5h-25.9l0.1,10.1
		c0,4.4,1.1,9.1,9.3,9.1h20.9c0.3,0,0.5,0.2,0.5,0.5v4.6c0,0.3-0.2,0.5-0.5,0.5h-21.3C230.3,328.1,224.9,322.9,224.9,314.8z"/>
	<path id="XMLID_33_" class="st2" d="M312.2,322.6h19.5c0.5,0,0.9,0.4,0.9,0.9v3.8c0,0.5-0.4,0.9-0.9,0.9h-25
		c-0.7,0-1.3-0.6-1.3-1.3v-52.5c0-0.5,0.4-0.9,0.9-0.9h3.8c0.5,0,0.9,0.4,0.9,0.9v46.9C310.9,322,311.5,322.6,312.2,322.6z"/>
	<path id="XMLID_30_" class="st2" d="M349.3,273.5h8.8c9.6,0,14.4,5.6,14.4,14.6V314c0,9.1-4.9,14.6-14.5,14.6h-8.7
		c-9.6,0-14.4-5.5-14.4-14.6v-25.9C334.8,279.1,339.6,273.5,349.3,273.5z M349.6,323h8c8.2-0.3,9.3-4.7,9.3-9.1v-25.9
		c0-4.3-1.1-9-9.3-9.1c-6.4-0.1-6.2,0-8,0c-8.2,0-9.3,4.7-9.3,9.1V314C340.4,318.4,341.4,323,349.6,323z"/>
	<path id="XMLID_28_" class="st2" d="M436.6,298.9l18.2,28c0.3,0.5,0,1.2-0.7,1.2H449c-0.3,0-0.5-0.1-0.7-0.4l-15.8-24.3
		c-0.2-0.3-0.6-0.3-0.8,0l-6.4,9.3c-0.4,0.5-0.6,1.1-0.6,1.8v12.8c0,0.4-0.4,0.8-0.8,0.8h-4c-0.4,0-0.8-0.4-0.8-0.8v-53.3
		c0-0.3,0.3-0.6,0.6-0.6h4.3c0.3,0,0.6,0.3,0.6,0.6v27.5c0,0.6,0.7,0.8,1,0.3l19.4-28.2c0.1-0.2,0.3-0.3,0.5-0.3h5.4
		c0.5,0,0.8,0.6,0.5,1l-15,21.9C436.1,297.1,436.1,298.1,436.6,298.9z"/>
	<path id="XMLID_27_" class="st2" d="M172.4,273.5H154c-0.2,0-0.5,0.1-0.7,0.3l-3.7,3.7c-0.2,0.2-0.3,0.4-0.3,0.7v49.1
		c0,0.4,0.4,0.8,0.8,0.8h3.9c0.4,0,0.8-0.4,0.8-0.8v-47.6c0-0.3,0.2-0.6,0.6-0.6h16.9c4.4,0,9.1,1.1,9.1,9.3v38.9
		c0,0.4,0.4,0.8,0.8,0.8h3.9c0.4,0,0.8-0.4,0.8-0.8v-39.2C187,278.4,181.4,273.5,172.4,273.5z"/>
	<path id="XMLID_24_" class="st2" d="M302.7,327l-11.4-22.8c-0.1-0.3,0-0.7,0.4-0.7c3.9-0.5,7.8-5.1,7.8-13.7v-2.2
		c0-9.1-4.9-14.1-13.1-14.1h-17c-0.2,0-0.4,0.1-0.5,0.2l-4,4c-0.1,0.1-0.2,0.3-0.2,0.5v49.2c0,0.6,0.5,1,1,1h3.5c0.6,0,1-0.5,1-1
		v-23.9h14.4c0.2,0,0.4,0.1,0.4,0.3l11.9,24.1c0.2,0.4,0.5,0.6,0.9,0.6h3.9C302.5,328.5,303,327.7,302.7,327z M270.2,298v-17.6
		c0-0.7,0.6-1.3,1.3-1.3h14.6c6.7,0,7.8,4.2,7.8,8.5v1.8c0,4.4-1.1,8.5-7.8,8.5H270.2z"/>
	<path id="XMLID_2_" class="st2" d="M414.3,291v-2.7c0-12.4-8.9-14.7-16.6-14.7H394c-7.4,0-17.3,1.9-17.3,14.7v25.6
		c0,12.8,9.8,14.7,17.3,14.7h3.7c11.1,0,16.6-5.1,16.7-14.5c0-0.1,0-0.2-0.1-0.3l-3.1-3.1c-0.1-0.1-0.2-0.1-0.3-0.1h-1.6
		c-0.2,0-0.4,0.2-0.4,0.4v2.9c0,8.3-5.7,9.2-12.1,9.2h-0.9c-7.3,0-13.6-0.2-13.6-9.2v-25.6c0-9.1,6.3-9.2,13.6-9.2h1
		c6.2,0,11.8,0.9,12,8.8l3.7,3.7h1.3C414.1,291.6,414.3,291.3,414.3,291z"/>
	<path id="XMLID_5_" class="st2" d="M141.6,282.4c-1,0-1.9-0.2-2.8-0.6V327c0,0.6,0.5,1.1,1.1,1.1h3.3c0.6,0,1.1-0.5,1.1-1.1v-45.3
		C143.6,282.1,142.6,282.4,141.6,282.4z"/>
	<circle id="XMLID_4_" class="st2" cx="141.7" cy="274.9" r="5.1"/>
</g>
</svg>
